<svg data-name="Layer 1" xmlns="http://www.w3.org/2000/svg" viewBox="0 0 782.044 701.88"><path d="m609.488 100.59-25.446 6.562L270.537 188l-25.446 6.562a48.18 48.18 0 0 0-34.583 58.618l110.341 427.877a48.18 48.18 0 0 0 58.618 34.583l.065-.017 364.266-93.936.066-.017a48.18 48.18 0 0 0 34.583-58.618L668.106 135.173a48.18 48.18 0 0 0-58.618-34.583z" transform="translate(-208.978 -99.06)" fill="#f2f2f2" style="--darkreader-inline-fill:#1f2223"/><path d="m612.948 114.005-30.14 7.773-304.118 78.426-30.14 7.772a34.31 34.31 0 0 0-24.627 41.743l110.341 427.878a34.31 34.31 0 0 0 41.743 24.627l.066-.017 364.265-93.937.066-.017a34.31 34.31 0 0 0 24.627-41.743l-110.34-427.877a34.31 34.31 0 0 0-41.743-24.628z" transform="translate(-208.978 -99.06)" fill="#fff" style="--darkreader-inline-fill:#181a1b"/><path d="m590.19 252.563-184.273 47.52a8.014 8.014 0 0 1-4.002-15.52l184.273-47.52a8.014 8.014 0 0 1 4.002 15.52zM628.955 270.5l-216.284 55.774a8.014 8.014 0 1 1-4.002-15.52l216.284-55.775a8.014 8.014 0 0 1 4.002 15.52zM620.458 369.937l-184.273 47.52a8.014 8.014 0 1 1-4.002-15.52l184.273-47.52a8.014 8.014 0 1 1 4.002 15.52zM659.223 387.873 442.94 443.648a8.014 8.014 0 1 1-4.002-15.52l216.284-55.776a8.014 8.014 0 0 1 4.002 15.52zM650.727 487.31l-184.273 47.52a8.014 8.014 0 0 1-4.003-15.52l184.273-47.52a8.014 8.014 0 0 1 4.003 15.52zM689.492 505.246l-216.284 55.775a8.014 8.014 0 1 1-4.003-15.52l216.284-55.775a8.014 8.014 0 0 1 4.003 15.52z" transform="translate(-208.978 -99.06)" fill="#f2f2f2" style="--darkreader-inline-fill:#1f2223"/><path d="m374.459 348.809-65.213 16.817a3.847 3.847 0 0 1-4.68-2.762l-14.97-58.048a3.847 3.847 0 0 1 2.762-4.68l65.212-16.818a3.847 3.847 0 0 1 4.68 2.762l14.97 58.048a3.847 3.847 0 0 1-2.761 4.68zM404.727 466.182 339.515 483a3.847 3.847 0 0 1-4.681-2.761l-14.97-58.048a3.847 3.847 0 0 1 2.762-4.681l65.212-16.817a3.847 3.847 0 0 1 4.681 2.761l14.97 58.049a3.847 3.847 0 0 1-2.762 4.68zM434.995 583.556l-65.212 16.817a3.847 3.847 0 0 1-4.68-2.762l-14.97-58.048a3.847 3.847 0 0 1 2.761-4.68l65.213-16.818a3.847 3.847 0 0 1 4.68 2.762l14.97 58.048a3.847 3.847 0 0 1-2.762 4.68z" transform="translate(-208.978 -99.06)" fill="#e6e6e6" style="--darkreader-inline-fill:#d8d5d0"/><path d="M863.636 209.052H487.318a48.18 48.18 0 0 0-48.125 48.125v441.876a48.18 48.18 0 0 0 48.125 48.125h376.318a48.18 48.18 0 0 0 48.125-48.125V257.177a48.18 48.18 0 0 0-48.125-48.125z" transform="translate(-208.978 -99.06)" fill="#e6e6e6" style="--darkreader-inline-fill:#26292b"/><path d="M863.637 222.906H487.318a34.31 34.31 0 0 0-34.27 34.27v441.877a34.31 34.31 0 0 0 34.27 34.27h376.319a34.31 34.31 0 0 0 34.27-34.27V257.177a34.31 34.31 0 0 0-34.27-34.271z" transform="translate(-208.978 -99.06)" fill="#fff" style="--darkreader-inline-fill:#181a1b"/><circle cx="694.194" cy="614.03" r="87.85" fill="#6c63ff" style="--darkreader-inline-fill:#080091"/><path d="M945.187 701.63h-30.556v-30.556a11.459 11.459 0 0 0-22.918 0v30.557h-30.557a11.459 11.459 0 0 0 0 22.917h30.557v30.557a11.459 11.459 0 1 0 22.918 0v-30.557h30.556a11.459 11.459 0 0 0 0-22.917z" transform="translate(-208.978 -99.06)" fill="#fff" style="--darkreader-inline-fill:#181a1b"/><path d="M807 465.716H616.7a8.014 8.014 0 1 1 0-16.029h190.302a8.014 8.014 0 0 1 0 16.029zM840.059 492.763h-223.36a8.014 8.014 0 1 1 0-16.028h223.36a8.014 8.014 0 1 1 0 16.028zM807 586.929H616.7a8.014 8.014 0 1 1 0-16.028h190.302a8.014 8.014 0 0 1 0 16.028zM840.059 613.977h-223.36a8.014 8.014 0 1 1 0-16.029h223.36a8.014 8.014 0 1 1 0 16.029z" transform="translate(-208.978 -99.06)" fill="#e6e6e6" style="--darkreader-inline-fill:#26292b"/><path d="M574.07 505.042h-67.346a3.847 3.847 0 0 1-3.842-3.843v-59.947a3.847 3.847 0 0 1 3.842-3.843h67.346a3.847 3.847 0 0 1 3.843 3.843v59.947a3.847 3.847 0 0 1-3.843 3.843zM574.07 626.255h-67.346a3.847 3.847 0 0 1-3.842-3.843v-59.947a3.847 3.847 0 0 1 3.842-3.843h67.346a3.847 3.847 0 0 1 3.843 3.843v59.947a3.847 3.847 0 0 1-3.843 3.843z" transform="translate(-208.978 -99.06)" fill="#e6e6e6" style="--darkreader-inline-fill:#d8d5d0"/><path d="M807.212 330.781H666.91a8.014 8.014 0 0 1 0-16.028h140.302a8.014 8.014 0 0 1 0 16.028zM840.27 357.829H666.91a8.014 8.014 0 1 1 0-16.029h173.36a8.014 8.014 0 0 1 0 16.029z" transform="translate(-208.978 -99.06)" fill="#ccc" style="--darkreader-inline-fill:#35393b"/><path d="M635.86 390.607H506.512a3.847 3.847 0 0 1-3.843-3.843V285.817a3.847 3.847 0 0 1 3.843-3.843H635.86a3.847 3.847 0 0 1 3.843 3.843v100.947a3.847 3.847 0 0 1-3.843 3.843z" transform="translate(-208.978 -99.06)" fill="#6c63ff" style="--darkreader-inline-fill:#080091"/></svg>
